<svg viewBox="0 0 512 512" xmlns="http://www.w3.org/2000/svg">
  <!-- Background Circle -->
  <circle cx="256" cy="256" r="240" fill="#F8FAFC" stroke="#E2E8F0" stroke-width="4"/>
  
  <!-- Microphone Body -->
  <rect x="200" y="150" width="112" height="180" rx="56" ry="56" fill="#3B82F6"/>
  
  <!-- Microphone Grille Lines -->
  <line x1="220" y1="180" x2="292" y2="180" stroke="#FFFFFF" stroke-width="3" opacity="0.6"/>
  <line x1="220" y1="200" x2="292" y2="200" stroke="#FFFFFF" stroke-width="3" opacity="0.6"/>
  <line x1="220" y1="220" x2="292" y2="220" stroke="#FFFFFF" stroke-width="3" opacity="0.6"/>
  <line x1="220" y1="240" x2="292" y2="240" stroke="#FFFFFF" stroke-width="3" opacity="0.6"/>
  <line x1="220" y1="260" x2="292" y2="260" stroke="#FFFFFF" stroke-width="3" opacity="0.6"/>
  <line x1="220" y1="280" x2="292" y2="280" stroke="#FFFFFF" stroke-width="3" opacity="0.6"/>
  <line x1="220" y1="300" x2="292" y2="300" stroke="#FFFFFF" stroke-width="3" opacity="0.6"/>
  
  <!-- Microphone Stand -->
  <rect x="248" y="330" width="16" height="80" fill="#64748B"/>
  
  <!-- Stand Base -->
  <ellipse cx="256" cy="420" rx="60" ry="12" fill="#475569"/>
  
  <!-- Sound Waves -->
  <path d="M 340 200 Q 380 220 380 256 Q 380 292 340 312" stroke="#10B981" stroke-width="6" fill="none" stroke-linecap="round" opacity="0.9"/>
  <path d="M 360 220 Q 390 235 390 256 Q 390 277 360 292" stroke="#10B981" stroke-width="4" fill="none" stroke-linecap="round" opacity="0.7"/>
  
  <!-- Left Side Sound Waves -->
  <path d="M 172 200 Q 132 220 132 256 Q 132 292 172 312" stroke="#10B981" stroke-width="6" fill="none" stroke-linecap="round" opacity="0.9"/>
  <path d="M 152 220 Q 122 235 122 256 Q 122 277 152 292" stroke="#10B981" stroke-width="4" fill="none" stroke-linecap="round" opacity="0.7"/>
</svg>